<svg width="500" height="500" viewBox="0 0 500 500" fill="none" xmlns="http://www.w3.org/2000/svg">
<path d="M416.078 228.669C411.467 207.146 408.67 190.652 401.133 169.791C392.863 174.843 384.522 179.773 376.111 184.581C379.806 199.175 376.061 214.398 368.567 227.191C361.337 239.533 350.01 250.785 335.71 254.157C317.591 258.43 297.04 257.475 280.825 247.609C268.479 240.522 257.893 226.762 254.369 212.964C251.599 202.115 254.999 198.505 243.744 191.63C230.597 183.597 215.421 185.249 206.216 198.293C206.327 214.373 201.268 227.575 190.022 239.021C178.764 250.478 158.944 259.574 142.822 259.145C115.384 258.416 93.7114 244.101 81.8227 220.033C80.8181 222.181 80.5384 239.773 79.7944 244.181C76.8563 261.586 73.0107 278.648 70.427 296.109L65.0071 328.344C63.2103 341.396 62.6412 354.647 60.3182 367.924C59.0833 374.978 58.1048 392.646 60.3182 403.681C62.274 414.715 68.3231 438.354 79.3208 438.354H81.8225H95.4711H358.156H401.417H416.23C429.738 438.354 437.167 414.715 439.569 403.681C441.972 392.646 440.91 374.978 439.569 367.924C437.048 354.647 436.43 341.396 434.48 328.344C429.267 294.956 423.129 261.718 416.078 228.669Z" fill="#F9F9F9"/>
<path d="M224.247 202.709C230.607 202.195 244.183 202.036 242.303 212.983C241.662 216.714 236.856 219.781 233.651 221.569C237.058 227.135 254.497 254.989 251.199 260.15C248.798 261.67 247.268 261.363 245.784 258.788C241.483 251.323 235.722 234.619 229.698 228.718C226.248 233.745 210.707 259.428 207.597 261.339C205.448 261.612 203.941 260.547 203.378 258.44C203.495 255.825 223.377 225.759 226.321 221.454C216.973 217.48 209.506 205.12 224.247 202.709Z" fill="#081D4F"/>
<path d="M224.872 209.42C227.463 209.297 235.139 208.165 235.306 211.691C234.774 213.012 233.624 213.706 232.478 214.591C228.677 215.995 222.583 212.356 223.602 209.686L224.872 209.42Z" fill="#F6F5EA"/>
<path d="M211.065 264.575C214.539 265.317 218.014 270.823 222.146 272.717C227.235 275.025 234.335 275.196 239.191 272.277C242.182 270.479 246.312 265.456 249.882 267.314C251.568 269.848 250.597 271.622 248.872 273.644C248.293 274.171 247.699 274.678 247.089 275.164C235.784 284.046 219.708 282.855 209.985 271.859C207.496 269.045 208.064 266.627 211.065 264.575Z" fill="#081D4F"/>
<path d="M254.454 186.22C258.895 173.968 267.119 163.444 277.938 156.172C291.512 147.224 310.878 141.888 326.755 145.782C347.523 150.874 360.413 156.961 372.087 174.717C378.757 171.962 390.773 165.4 397.897 161.948C405.943 158.392 413.806 154.88 422.741 158.085C426.614 159.474 432.799 165.074 432.224 169.513C431.606 170.687 431.505 170.81 430.398 171.538C425.736 172.043 424.854 161.899 416.055 163.501C410.609 164.493 405.356 166.131 401.134 169.791C392.863 174.842 384.522 179.772 376.111 184.58C379.806 199.174 376.061 214.398 368.567 227.19C361.337 239.532 350.009 250.784 335.709 254.157C317.591 258.43 297.04 257.475 280.825 247.608C268.479 240.522 257.892 226.761 254.369 212.964C251.599 202.114 254.998 198.505 243.744 191.63C230.597 183.597 215.421 185.249 206.216 198.293C206.327 214.373 201.268 227.575 190.022 239.02C178.764 250.477 158.945 259.574 142.822 259.145C115.384 258.415 93.7115 244.1 81.8228 220.032C80.359 215.779 78.8381 211.94 78.1843 207.48C75.6774 190.384 84.1766 177.592 93.7705 164.542C99.1902 158.359 106.027 152.576 113.713 149.669C130.22 143.428 154.177 143.537 170.265 151.015C187.918 159.219 196.756 167.194 203.799 184.947C218.741 172.575 240.026 173.603 254.454 186.22Z" fill="#081D4F"/>
<path d="M96.8205 228.423C94.0048 225.499 90.4887 218.242 88.9425 214.231C81.249 194.276 101.546 165.157 120.296 159.183C135.154 154.45 154.987 155.468 169.376 162.726C178.002 167.194 185.683 172.427 190.373 181.264C203.35 203.516 191.999 229.554 170.967 241.566C157.084 249.493 139.368 253.782 124.17 247.015C112.7 243.208 104.401 237.762 96.8205 228.423Z" fill="#F6F5EA"/>
<path d="M96.8205 228.423C94.0048 225.499 90.4887 218.242 88.9425 214.231C81.249 194.276 101.546 165.157 120.296 159.183C135.154 154.45 154.987 155.468 169.377 162.726L169.14 162.983C164.368 168.283 162.339 178.019 155.463 184.016C145.162 192.999 132.177 189.855 122.275 198.315C117.813 202.127 115.847 207.818 113.086 212.803C109.475 219.32 102.994 224.449 96.8205 228.423Z" fill="#2B85A4"/>
<path d="M190.373 181.265C203.35 203.517 191.999 229.555 170.967 241.567C157.084 249.494 139.368 253.783 124.17 247.016C127.929 243.128 130.861 241.652 134.374 236.441C139.209 229.266 141.487 220.117 147.466 214.062C153.875 207.573 165.345 209.457 172.505 204.088C177.892 200.049 180.939 193.037 184.861 187.638C186.845 184.906 187.983 183.667 190.373 181.265Z" fill="#2B85A4"/>
<path d="M264.283 214.343C260.69 209.144 260.503 198.24 262.648 192.289C268.082 177.211 276.66 165.596 291.162 158.36C306.628 150.645 317.334 150.1 333.542 155.378C339.256 157.674 343.25 159.251 348.584 162.431C371.069 177.225 373.237 201.873 358.979 223.937C352.507 233.952 342.869 242.223 330.904 244.348C314.234 247.174 297.72 246.05 283.42 236.494C282.274 235.716 281.166 234.882 280.102 233.997C273.785 229.971 267.756 220.774 264.283 214.343Z" fill="#F6F5EA"/>
<path d="M348.584 162.432C371.069 177.226 373.237 201.874 358.979 223.938C352.507 233.953 342.869 242.223 330.904 244.348C314.234 247.174 297.72 246.05 283.42 236.494C282.274 235.716 281.166 234.883 280.102 233.998C282.161 233.097 285.191 232.135 286.932 230.888C295.777 224.554 294.841 212.092 300.633 203.564C307.016 194.166 318.391 196.183 328.239 194.079C346.96 190.082 339.734 175.581 348.584 162.432Z" fill="#2B85A4"/>
<path d="M264.283 214.343C260.69 209.144 260.503 198.24 262.648 192.289C268.082 177.211 276.66 165.596 291.162 158.36C306.628 150.645 317.334 150.1 333.542 155.378C324.113 179.093 309.316 172.005 293.866 182.449C279.531 192.14 288.291 207.556 264.283 214.343Z" fill="#2B85A4"/>
<path d="M93.7705 164.542C93.7026 163.263 95.0413 157.889 95.4317 156.56C98.9731 144.504 95.6508 134.659 92.5006 123.615C90.2501 115.726 86.0437 84.8512 87.4671 79.2297C96.6581 42.925 152.995 90.3115 166.692 102.782C166.955 103.034 169.093 104.314 169.372 104.252C219.213 93.2507 269.271 98.9868 318.748 109.242C320.947 109.413 323.655 109.933 325.62 108.663C332.99 103.899 338.44 96.0762 344.695 89.8147C350.242 84.2822 356.081 79.0495 362.184 74.1389C371.244 66.9424 388.415 53.3344 398.577 66.5487C403.88 73.4457 401.685 83.4961 400.578 91.4739C398.915 103.262 396.802 114.982 394.238 126.608C392.968 132.347 390.683 140.047 389.848 145.525C391.756 150.652 395.264 157.085 397.897 161.948C390.773 165.4 378.757 171.962 372.087 174.717C360.413 156.961 347.523 150.875 326.755 145.782C310.878 141.888 291.512 147.224 277.938 156.172C267.119 163.445 258.895 173.968 254.454 186.22C240.026 173.603 218.741 172.576 203.799 184.947C196.756 167.194 187.918 159.22 170.265 151.015C154.177 143.538 130.22 143.428 113.713 149.67C106.027 152.576 99.1903 158.36 93.7705 164.542Z" fill="#F9F9F9"/>
<path d="M114.377 89.1319C122.835 88.6592 140.251 116.74 138.795 125.753C138.676 126.486 137.843 127.477 137.359 128.055C131.397 128.195 131.713 121.27 129.388 116.091C127.697 112.309 125.603 108.721 123.142 105.387C120.676 102.028 112.644 94.6034 112.307 92.3046C112.478 90.9678 113.45 90.1506 114.377 89.1319Z" fill="#081D4F"/>
<path d="M376.201 88.8008C380.326 89.8824 380.567 93.2478 377.626 95.7016C370.517 101.643 364.698 108.655 359.632 116.398C358.218 118.564 357.103 120.402 354.815 121.847C352.686 120.98 350.18 119.378 351.548 116.795C356.004 108.381 367.973 92.6714 376.201 88.8008Z" fill="#081D4F"/>
<path d="M205.765 129.054C211.644 129.984 217.683 147.912 217.05 153.574C216.868 155.202 215.67 155.924 214.495 156.722C209.378 155.591 210.341 148.852 208.612 144.532C206.962 140.408 203.356 136.129 202.951 131.821C202.872 130.977 205.095 129.524 205.765 129.054Z" fill="#081D4F"/>
<path d="M262.481 132.585C274.978 133.377 254.614 149.313 252.011 151.162C250.713 151.197 250.173 150.829 249.027 150.27C246.355 147.043 251.432 142.736 253.666 140.536C256.432 137.813 259.384 134.918 262.481 132.585Z" fill="#081D4F"/>
<path d="M235.477 118.231C236.934 118.439 237.859 118.571 239.043 119.433C240.388 121.336 239.925 135.029 239.739 137.954C239.63 139.682 238.698 140.226 237.513 141.097C236.064 140.969 235.093 140.913 234.063 139.879C232.521 136.77 233.08 125.387 233.29 121.559C233.395 119.63 234.195 119.218 235.477 118.231Z" fill="#081D4F"/>
</svg>
